PathFileType	4	(X/Y/Z)	/Users/itak/Documents/Research/Walk-IL/dataset/trc/00083_00006.trc
DataRate	CameraRate	NumFrames	NumMarkers	Units	OrigDataRate	OrigDataStartFrame	OrigNumFrames
100.000000	100.000000	4	53	mm	100.000000	0	507
Frame#	Time	RPSI			LPSI			L3			STRN			T10			C7			CLAV			RBAK			LBAK			LSHO			LUPA			LAEL			LAOL			LWTS			LWPS			LFRA			LIFD			LHPS			LHTS			RSHO			RUPA			RAEL			RAOL			RWTS			RWPS			RFRA			RIFD			RHTS			RHPS			RBHD			LFHD			RFHD			LBHD			LHIP			RHIP			RASI			LASI			LKNE			LTHI			LANK			LTIP			LTOE			LMT1			LMT5			LHEE			RKNE			RTHI			RANK			RTIP			RTOE			RMT1			RMT5			RHEE			
		X1	Y1	Z1	X2	Y2	Z2	X3	Y3	Z3	X4	Y4	Z4	X5	Y5	Z5	X6	Y6	Z6	X7	Y7	Z7	X8	Y8	Z8	X9	Y9	Z9	X10	Y10	Z10	X11	Y11	Z11	X12	Y12	Z12	X13	Y13	Z13	X14	Y14	Z14	X15	Y15	Z15	X16	Y16	Z16	X17	Y17	Z17	X18	Y18	Z18	X19	Y19	Z19	X20	Y20	Z20	X21	Y21	Z21	X22	Y22	Z22	X23	Y23	Z23	X24	Y24	Z24	X25	Y25	Z25	X26	Y26	Z26	X27	Y27	Z27	X28	Y28	Z28	X29	Y29	Z29	X30	Y30	Z30	X31	Y31	Z31	X32	Y32	Z32	X33	Y33	Z33	X34	Y34	Z34	X35	Y35	Z35	X36	Y36	Z36	X37	Y37	Z37	X38	Y38	Z38	X39	Y39	Z39	X40	Y40	Z40	X41	Y41	Z41	X42	Y42	Z42	X43	Y43	Z43	X44	Y44	Z44	X45	Y45	Z45	X46	Y46	Z46	X47	Y47	Z47	X48	Y48	Z48	X49	Y49	Z49	X50	Y50	Z50	X51	Y51	Z51	X52	Y52	Z52	X53	Y53	Z53	

1	0	-1381.900024414062	1035.635131835938	441.7448120117188	-1388.331298828125	1026.298583984375	265.0763244628906	-1381.390502929688	1085.529907226562	346.3111572265625	-1135.23681640625	1283.845336914062	351.3240661621094	-1402.729248046875	1220.724487304688	343.8649291992188	-1342.303466796875	1487.839477539062	341.9951171875	-1164.536376953125	1398.399536132812	348.9372253417969	-1406.887939453125	1349.705078125	416.0830993652344	-1362.030883789062	1450.101684570312	240.1286315917969	-1255.982666015625	1452.48193359375	170.0456085205078	-1271.467651367188	1324.831298828125	92.59564971923828	-1258.289916992188	1108.769165039062	77.93632507324219	-1326.718383789062	1098.413696289062	159.9853363037109	-1191.128540039062	861.0648803710938	140.0425872802734	-1245.9765625	856.8671264648438	76.55855560302734	-1245.484130859375	999.151611328125	69.82891082763672	-1181.243896484375	679.4339599609375	165.2687683105469	-1221.997314453125	774.137451171875	81.00354766845703	-1175.837646484375	776.1957397460938	135.1471405029297	-1281.952880859375	1450.28759765625	519.991943359375	-1295.073364257812	1380.651000976562	583.2686767578125	-1326.704833984375	1115.339721679688	605.052978515625	-1308.228393554688	1094.439453125	509.1502380371094	-1202.734619140625	853.2177734375	575.5907592773438	-1274.979858398438	847.1302490234375	625.1156616210938	-1317.912231445312	1037.375	611.7188110351562	-1217.500732421875	664.3843383789062	564.604736328125	-1190.38525390625	750.1141357421875	578.2308349609375	-1246.306762695312	755.2272338867188	630.9132690429688	-1293.720581054688	1670.81982421875	274.7628173828125	-1137.904663085938	1692.7275390625	422.4935302734375	-1118.615356445312	1697.426147460938	298.2844543457031	-1305.713134765625	1658.25341796875	411.9295654296875	-1282.58837890625	960.2582397460938	178.3370513916016	-1312.653198242188	963.1746826171875	517.0472412109375	-1187.295166015625	981.4384765625	496.2170104980469	-1170.4853515625	970.2654418945312	228.1115875244141	-1214.0517578125	499.023681640625	243.7017059326172	-1245.494995117188	638.8889770507812	203.2457275390625	-1362.201782226562	52.86078262329102	246.5332489013672	-1295.255737304688	261.7972412109375	231.9613342285156	-1155.327270507812	45.84294509887695	243.0685119628906	-1203.519653320312	43.78515243530273	299.289306640625	-1261.085815429688	45.20302581787109	203.3334197998047	-1412.024047851562	52.32881927490234	323.5574645996094	-1224.796142578125	520.6095581054688	501.3790588378906	-1229.182983398438	790.270751953125	528.1697387695312	-1342.302490234375	46.33588409423828	506.5913696289062	-1249.797485351562	397.9204711914062	509.1591186523438	-1123.424194335938	43.93129348754883	474.7158508300781	-1184.12744140625	49.89765930175781	433.0195922851562	-1218.786987304688	48.80475234985352	524.8084106445312	-1387.020874023438	48.71535873413086	447.5817260742188	
2	0.01	-1382.048706054688	1035.676147460938	441.4235534667969	-1388.443969726562	1026.297607421875	264.7262268066406	-1381.411743164062	1085.552612304688	346.0540161132812	-1135.268310546875	1283.84765625	351.1351013183594	-1402.752563476562	1220.737426757812	343.5260314941406	-1342.234741210938	1487.89013671875	341.7296142578125	-1164.428466796875	1398.37255859375	348.7929077148438	-1406.950439453125	1349.716918945312	415.8049621582031	-1361.973754882812	1450.089477539062	239.8065032958984	-1255.81982421875	1452.4892578125	169.8417663574219	-1271.279296875	1324.833862304688	92.37268829345703	-1258.12158203125	1108.796630859375	77.62557220458984	-1326.508911132812	1098.380981445312	159.7285766601562	-1190.873901367188	861.0388793945312	139.4342346191406	-1245.927612304688	856.9163208007812	75.99018859863281	-1245.352783203125	999.1885375976562	69.42556762695312	-1185.17236328125	678.4456787109375	162.6177368164062	-1221.795776367188	774.0662231445312	80.34044647216797	-1175.670532226562	776.2156372070312	134.4202575683594	-1281.98193359375	1450.318969726562	519.7750244140625	-1295.109375	1380.746459960938	583.0221557617188	-1326.88134765625	1115.389282226562	604.8648681640625	-1308.373291015625	1094.467041015625	509.0299072265625	-1202.475952148438	853.431640625	575.4223022460938	-1274.83837890625	847.1862182617188	624.9591064453125	-1318.013549804688	1037.390625	611.58544921875	-1217.118041992188	664.5188598632812	564.36083984375	-1190.056762695312	750.3324584960938	577.9647216796875	-1246.078979492188	755.3152465820312	630.6823120117188	-1293.77099609375	1670.728393554688	274.5518798828125	-1137.865844726562	1692.823608398438	422.2032775878906	-1118.722412109375	1697.47314453125	298.0009155273438	-1305.729248046875	1658.16845703125	411.7031555175781	-1282.596069335938	960.2340698242188	178.0848236083984	-1312.8623046875	963.2348022460938	516.7710571289062	-1187.419921875	981.4467163085938	495.998046875	-1170.366088867188	970.3707275390625	227.791748046875	-1214.038330078125	498.9916381835938	243.5744018554688	-1245.312866210938	638.822998046875	203.2073059082031	-1362.211181640625	52.84336090087891	246.5054321289062	-1295.28564453125	261.7734680175781	231.8701934814453	-1155.337158203125	45.84836959838867	243.0629272460938	-1203.52880859375	43.79242324829102	299.279296875	-1261.093383789062	45.19058990478516	203.3149261474609	-1412.035034179688	52.33296203613281	323.5350952148438	-1224.828491210938	520.6328735351562	501.2320861816406	-1229.246948242188	790.3200073242188	528.0050659179688	-1342.308227539062	46.34586334228516	506.5843200683594	-1249.845825195312	397.9306945800781	509.0683898925781	-1123.425170898438	43.94696807861328	474.71533203125	-1184.143676757812	49.89686965942383	433.0318908691406	-1218.782470703125	48.82355880737305	524.8067626953125	-1387.017456054688	48.69462585449219	447.5553894042969	
3	0.02	-1382.240966796875	1035.718017578125	441.0332641601562	-1388.568115234375	1026.295288085938	264.29638671875	-1381.44189453125	1085.578857421875	345.7296142578125	-1135.299682617188	1283.847045898438	350.9079895019531	-1402.764892578125	1220.753662109375	343.1190490722656	-1342.134643554688	1487.94482421875	341.3878784179688	-1164.29541015625	1398.336791992188	348.6000061035156	-1407.014404296875	1349.727905273438	415.4507751464844	-1361.897827148438	1450.077514648438	239.4100952148438	-1255.618408203125	1452.497314453125	169.589599609375	-1271.046875	1324.844970703125	92.09220886230469	-1257.917236328125	1108.839477539062	77.20810699462891	-1326.246215820312	1098.342407226562	159.3738250732422	-1190.510620117188	861.030517578125	138.6848602294922	-1245.796997070312	856.9810791015625	75.2999267578125	-1245.174072265625	999.242919921875	68.90013885498047	-1189.241333007812	677.3954467773438	159.6354522705078	-1221.483520507812	774.0093994140625	79.54402160644531	-1175.420166015625	776.2689819335938	133.5346221923828	-1282.036376953125	1450.356811523438	519.4900512695312	-1295.154541015625	1380.852905273438	582.70703125	-1327.087646484375	1115.437377929688	604.6270141601562	-1308.537719726562	1094.486694335938	508.8697814941406	-1202.117309570312	853.7031860351562	575.218994140625	-1274.596313476562	847.2506713867188	624.7468872070312	-1318.130126953125	1037.403564453125	611.4154663085938	-1216.507934570312	664.7008056640625	564.0169067382812	-1189.584594726562	750.6076049804688	577.6451416015625	-1245.714599609375	755.4265747070312	630.3568725585938	-1293.859619140625	1670.61669921875	274.27294921875	-1137.856811523438	1692.952880859375	421.8384094238281	-1118.856689453125	1697.53857421875	297.6410827636719	-1305.77734375	1658.074340820312	411.4197387695312	-1282.600830078125	960.205078125	177.7702331542969	-1313.120849609375	963.3107299804688	516.4231567382812	-1187.583618164062	981.4624633789062	495.7290649414062	-1170.235717773438	970.44384765625	227.3984069824219	-1214.029907226562	498.9556884765625	243.4301300048828	-1245.128662109375	638.7515258789062	203.1396789550781	-1362.219970703125	52.82286071777344	246.4755706787109	-1295.3203125	261.7449645996094	231.7655181884766	-1155.346313476562	45.85307312011719	243.0591278076172	-1203.549438476562	43.80746078491211	299.2625122070312	-1261.102416992188	45.17662048339844	203.2961120605469	-1412.04638671875	52.33841323852539	323.5097961425781	-1224.872680664062	520.6613159179688	501.0593872070312	-1229.298095703125	790.3822631835938	527.8084106445312	-1342.3134765625	46.35467529296875	506.5774841308594	-1249.90771484375	397.9421997070312	508.9584655761719	-1123.430053710938	43.96159744262695	474.71533203125	-1184.162719726562	49.89663696289062	433.0437316894531	-1218.775146484375	48.84538650512695	524.7999267578125	-1387.010864257812	48.66847229003906	447.5254211425781	
4	0.03	-1382.467895507812	1035.755737304688	440.595703125	-1388.689453125	1026.290771484375	263.8104858398438	-1381.481689453125	1085.606689453125	345.3502197265625	-1135.324951171875	1283.842651367188	350.6565246582031	-1402.760009765625	1220.77197265625	342.6683044433594	-1342.004272460938	1487.997924804688	340.9837646484375	-1164.145385742188	1398.2939453125	348.3617858886719	-1407.0703125	1349.736206054688	415.0370178222656	-1361.803466796875	1450.067993164062	238.960693359375	-1255.389038085938	1452.506103515625	169.3011474609375	-1270.782348632812	1324.86865234375	91.76405334472656	-1257.685180664062	1108.900756835938	76.68924713134766	-1325.942626953125	1098.300659179688	158.9183349609375	-1190.0283203125	861.0559692382812	137.8346710205078	-1245.553466796875	857.0598754882812	74.527587890625	-1244.944458007812	999.3165283203125	68.26725006103516	-1192.767333984375	676.4487915039062	156.6959686279297	-1221.041748046875	773.984619140625	78.66474914550781	-1175.060302734375	776.3651123046875	132.5448913574219	-1282.121826171875	1450.398559570312	519.14453125	-1295.210693359375	1380.959228515625	582.3330078125	-1327.3056640625	1115.475219726562	604.349365234375	-1308.705688476562	1094.491821289062	508.6714172363281	-1201.656494140625	854.02490234375	574.9909057617188	-1274.235107421875	847.3185424804688	624.4790649414062	-1318.249755859375	1037.410766601562	611.216552734375	-1215.64453125	664.9307250976562	563.57080078125	-1188.956787109375	750.931396484375	577.2857666015625	-1245.18994140625	755.554443359375	629.9395751953125	-1293.991821289062	1670.489501953125	273.9310302734375	-1137.895751953125	1693.113525390625	421.4143371582031	-1119.01220703125	1697.622680664062	297.2192993164062	-1305.86669921875	1657.980346679688	411.0881958007812	-1282.600341796875	960.1732177734375	177.4077301025391	-1313.409912109375	963.3959350585938	516.0194702148438	-1187.784912109375	981.4863891601562	495.4261169433594	-1170.091796875	970.4891357421875	226.9596099853516	-1214.03125	498.9193115234375	243.2816162109375	-1244.974609375	638.6842041015625	203.0345764160156	-1362.22705078125	52.80118179321289	246.4469604492188	-1295.358642578125	261.7140197753906	231.6559295654297	-1155.35400390625	45.85640716552734	243.0580596923828	-1203.578125	43.82748031616211	299.2422790527344	-1261.11181640625	45.16303253173828	203.2798614501953	-1412.056640625	52.34360122680664	323.4848327636719	-1224.928833007812	520.6941528320312	500.8729553222656	-1229.31884765625	790.454345703125	527.59130859375	-1342.3173828125	46.36080932617188	506.572021484375	-1249.980712890625	397.9535522460938	508.8356323242188	-1123.439453125	43.97309875488281	474.7166137695312	-1184.182861328125	49.89736557006836	433.0533447265625	-1218.764770507812	48.86897277832031	524.7867431640625	-1386.999389648438	48.63784790039062	447.4928588867188	
